# xmcd
#
# Track frame offsets:
# 150
# 11385
# 25505
# 36025
# 47810
# 62685
# 72380
# 94995
# 104805
# 113318
#
# Disc length: 1612 seconds
#
#
# Revision: 0
# Processed by: cddbd v1.5PL3 Copyright (c) Steve Scherf et al.
# Submitted via: FreeRIP 2.52 
#
DISCID=7a064a0a
DTITLE=Down Home Country Christmas - Down Home Country Christmas
DYEAR=1993
DGENRE=Christmas
TTITLE0=Goin' Home For Christmas - Merle Haggard
TTITLE1=Hark! The Herald Angels Sing - Marty Robbins
TTITLE2=Silver Bells - Tanya Tucker
TTITLE3=O Come, All Ye Faithful ? Jim Nabors
TTITLE4=Have Yourself A Merry Little Christmas - Jimmy Dean
TTITLE5=Soon It Will Be Christmas Day - Lynn Anderson
TTITLE6=The Christmas Spirit - Johnny Cash
TTITLE7=One Happy Christmas - Tammy Wynette
TTITLE8=Joy To The World - George Jones
TTITLE9=Jingle Bells - Ray Price
EXTD=
EXTT0=
EXTT1=
EXTT2=
EXTT3=
EXTT4=
EXTT5=
EXTT6=
EXTT7=
EXTT8=
EXTT9=
PLAYORDER=
